<svg xmlns="http://www.w3.org/2000/svg" xmlns:xlink="http://www.w3.org/1999/xlink" class="railroad-diagram" width="529" height="80" viewBox="0 0 529 80">
  <defs>
    <style type="text/css"><![CDATA[
      path {
        stroke-width: 3;
        stroke: black;
        fill: rgba(0,0,0,0);
      }
      text {
        font: bold 14px monospace;
        text-anchor: middle;
        white-space: pre;
        fill: black;
      }
      text.diagram-text {
        font-size: 12px;
      }
      text.diagram-arrow {
        font-size: 16px;
      }
      text.label {
        text-anchor: start;
      }
      text.comment {
        font: italic 12px monospace;
      }
      rect {
        stroke-width: 3;
        stroke: black;
        fill: hsl(180,100%,90%);
      }
      rect[rx] {
        fill: hsl(120,100%,90%);
      }
      rect.group-box {
        stroke: gray;
        stroke-dasharray: 10 5;
        fill: none;
      }
      path.diagram-text {
        stroke-width: 3;
        stroke: black;
        fill: white;
        cursor: help;
      }
      g.diagram-text:hover path.diagram-text {
        fill: #eee;
      }
    ]]></style>
  </defs>

<g transform="translate(.5 .5)">
<g>
<path d="M20 30v20m10 -20v20m-10 -10h20"></path>
</g>
<path d="M40 40h10"></path>
<g class="terminal">
<path d="M50 40h0"></path>
<path d="M78.5 40h0"></path>
<rect x="50" y="29" width="28.5" height="22" rx="10" ry="10"></rect>
<text x="64.25" y="44">;</text>
</g>
<path d="M78.5 40h10"></path>
<g>
<path d="M88.5 40h0"></path>
<path d="M364 40h0"></path>
<path d="M88.5 40a10 10 0 0 0 10 -10v0a10 10 0 0 1 10 -10"></path>
<g>
<path d="M108.5 20h235.5"></path>
</g>
<path d="M344 20a10 10 0 0 1 10 10v0a10 10 0 0 0 10 10"></path>
<path d="M88.5 40h20"></path>
<g>
<path d="M108.5 40h0"></path>
<path d="M344 40h0"></path>
<path d="M108.5 40h10"></path>
<g class="terminal">
<path d="M118.5 40h0"></path>
<path d="M334 40h0"></path>
<rect x="118.5" y="29" width="215.5" height="22" rx="10" ry="10"></rect>
<text x="226.25" y="44">Anything but line break</text>
</g>
<path d="M334 40h10"></path>
<path d="M118.5 40a10 10 0 0 0 -10 10v0a10 10 0 0 0 10 10"></path>
<g>
<path d="M118.5 60h215.5"></path>
</g>
<path d="M334 60a10 10 0 0 0 10 -10v0a10 10 0 0 0 -10 -10"></path>
</g>
<path d="M344 40h20"></path>
</g>
<path d="M364 40h10"></path>
<g class="terminal">
<path d="M374 40h0"></path>
<path d="M479 40h0"></path>
<rect x="374" y="29" width="105" height="22" rx="10" ry="10"></rect>
<text x="426.5" y="44">Line break</text>
</g>
<path d="M479 40h10"></path>
<path d="M 489 40 h 20 m -10 -10 v 20 m 10 -20 v 20"></path>
</g>
</svg>
