<svg xmlns="http://www.w3.org/2000/svg" xmlns:xlink="http://www.w3.org/1999/xlink" class="railroad-diagram" width="285" height="169" viewBox="0 0 285 169">
  <defs>
    <style type="text/css"><![CDATA[
      path {
        stroke-width: 3;
        stroke: black;
        fill: rgba(0,0,0,0);
      }
      text {
        font: bold 14px monospace;
        text-anchor: middle;
        white-space: pre;
        fill: black;
      }
      text.diagram-text {
        font-size: 12px;
      }
      text.diagram-arrow {
        font-size: 16px;
      }
      text.label {
        text-anchor: start;
      }
      text.comment {
        font: italic 12px monospace;
      }
      rect {
        stroke-width: 3;
        stroke: black;
        fill: hsl(180,100%,90%);
      }
      rect[rx] {
        fill: hsl(120,100%,90%);
      }
      rect.group-box {
        stroke: gray;
        stroke-dasharray: 10 5;
        fill: none;
      }
      path.diagram-text {
        stroke-width: 3;
        stroke: black;
        fill: white;
        cursor: help;
      }
      g.diagram-text:hover path.diagram-text {
        fill: #eee;
      }
    ]]></style>
  </defs>

<g transform="translate(.5 .5)">
<g>
<path d="M20 30v20m10 -20v20m-10 -10h20"></path>
</g>
<g>
<path d="M40 40h0"></path>
<path d="M245 40h0"></path>
<path d="M40 40a10 10 0 0 0 10 -10v0a10 10 0 0 1 10 -10"></path>
<g>
<path d="M60 20h165"></path>
</g>
<path d="M225 20a10 10 0 0 1 10 10v0a10 10 0 0 0 10 10"></path>
<path d="M40 40h20"></path>
<g>
<path d="M60 40h0"></path>
<path d="M225 40h0"></path>
<path d="M60 40h10"></path>
<g>
<path d="M70 40h0"></path>
<path d="M215 40h0"></path>
<path d="M70 40h20"></path>
<g class="non-terminal">
<path d="M90 40h29.75"></path>
<path d="M165.25 40h29.75"></path>
<rect x="119.75" y="29" width="45.5" height="22"></rect>
<a xlink:href="#key"><text x="142.5" y="44">Key</text>
</a>
</g>
<path d="M195 40h20"></path>
<path d="M70 40a10 10 0 0 1 10 10v10a10 10 0 0 0 10 10"></path>
<g class="non-terminal">
<path d="M90 70h12.75"></path>
<path d="M182.25 70h12.75"></path>
<rect x="102.75" y="59" width="79.5" height="22"></rect>
<a xlink:href="#section"><text x="142.5" y="74">Section</text>
</a>
</g>
<path d="M195 70a10 10 0 0 0 10 -10v-10a10 10 0 0 1 10 -10"></path>
<path d="M70 40a10 10 0 0 1 10 10v40a10 10 0 0 0 10 10"></path>
<g class="non-terminal">
<path d="M90 100h12.75"></path>
<path d="M182.25 100h12.75"></path>
<rect x="102.75" y="89" width="79.5" height="22"></rect>
<a xlink:href="#comment"><text x="142.5" y="104">Comment</text>
</a>
</g>
<path d="M195 100a10 10 0 0 0 10 -10v-40a10 10 0 0 1 10 -10"></path>
<path d="M70 40a10 10 0 0 1 10 10v70a10 10 0 0 0 10 10"></path>
<g class="terminal">
<path d="M90 130h0"></path>
<path d="M195 130h0"></path>
<rect x="90" y="119" width="105" height="22" rx="10" ry="10"></rect>
<text x="142.5" y="134">Line break</text>
</g>
<path d="M195 130a10 10 0 0 0 10 -10v-70a10 10 0 0 1 10 -10"></path>
</g>
<path d="M215 40h10"></path>
<path d="M70 40a10 10 0 0 0 -10 10v89a10 10 0 0 0 10 10"></path>
<g>
<path d="M70 149h145"></path>
</g>
<path d="M215 149a10 10 0 0 0 10 -10v-89a10 10 0 0 0 -10 -10"></path>
</g>
<path d="M225 40h20"></path>
</g>
<path d="M 245 40 h 20 m -10 -10 v 20 m 10 -20 v 20"></path>
</g>
</svg>
