<svg xmlns="http://www.w3.org/2000/svg" xmlns:xlink="http://www.w3.org/1999/xlink" class="railroad-diagram" width="565.5" height="80" viewBox="0 0 565.5 80">
  <defs>
    <style type="text/css"><![CDATA[
      path {
        stroke-width: 3;
        stroke: black;
        fill: rgba(0,0,0,0);
      }
      text {
        font: bold 14px monospace;
        text-anchor: middle;
        white-space: pre;
        fill: black;
      }
      text.diagram-text {
        font-size: 12px;
      }
      text.diagram-arrow {
        font-size: 16px;
      }
      text.label {
        text-anchor: start;
      }
      text.comment {
        font: italic 12px monospace;
      }
      rect {
        stroke-width: 3;
        stroke: black;
        fill: hsl(180,100%,90%);
      }
      rect[rx] {
        fill: hsl(120,100%,90%);
      }
      rect.group-box {
        stroke: gray;
        stroke-dasharray: 10 5;
        fill: none;
      }
      path.diagram-text {
        stroke-width: 3;
        stroke: black;
        fill: white;
        cursor: help;
      }
      g.diagram-text:hover path.diagram-text {
        fill: #eee;
      }
    ]]></style>
  </defs>

<g transform="translate(.5 .5)">
<g>
<path d="M20 30v20m10 -20v20m-10 -10h20"></path>
</g>
<path d="M40 40h10"></path>
<g class="terminal">
<path d="M50 40h0"></path>
<path d="M316.5 40h0"></path>
<rect x="50" y="29" width="266.5" height="22" rx="10" ry="10"></rect>
<text x="183.25" y="44">Anything but white space or =</text>
</g>
<path d="M316.5 40h10"></path>
<g>
<path d="M326.5 40h0"></path>
<path d="M525.5 40h0"></path>
<path d="M326.5 40a10 10 0 0 0 10 -10v0a10 10 0 0 1 10 -10"></path>
<g>
<path d="M346.5 20h159"></path>
</g>
<path d="M505.5 20a10 10 0 0 1 10 10v0a10 10 0 0 0 10 10"></path>
<path d="M326.5 40h20"></path>
<g>
<path d="M346.5 40h0"></path>
<path d="M505.5 40h0"></path>
<path d="M346.5 40h10"></path>
<g class="terminal">
<path d="M356.5 40h0"></path>
<path d="M495.5 40h0"></path>
<rect x="356.5" y="29" width="139" height="22" rx="10" ry="10"></rect>
<text x="426" y="44">Anything but =</text>
</g>
<path d="M495.5 40h10"></path>
<path d="M356.5 40a10 10 0 0 0 -10 10v0a10 10 0 0 0 10 10"></path>
<g>
<path d="M356.5 60h139"></path>
</g>
<path d="M495.5 60a10 10 0 0 0 10 -10v0a10 10 0 0 0 -10 -10"></path>
</g>
<path d="M505.5 40h20"></path>
</g>
<path d="M 525.5 40 h 20 m -10 -10 v 20 m 10 -20 v 20"></path>
</g>
</svg>
